<svg xmlns="http://www.w3.org/2000/svg" viewBox="0 0 128 128" role="img" aria-labelledby="title desc">
  <title id="title">upifarm mark</title>
  <desc id="desc">A minimal premium agriculture mark for upifarm.</desc>
  <rect width="128" height="128" rx="64" fill="#11291f"/>
  <circle cx="64" cy="64" r="52" fill="#f5ead7"/>
  <path d="M34 75c9-29 21-43 36-43 11 0 20 8 20 20 0 17-16 29-36 29H34Z" fill="#6f8f52"/>
  <path d="M43 73c8-20 17-31 28-31 6 0 10 4 10 10 0 11-11 21-27 21H43Z" fill="#11291f"/>
  <path d="M76 32c13 3 21 13 21 26 0 19-16 32-41 32H31" fill="none" stroke="#d6a94a" stroke-width="8" stroke-linecap="round"/>
  <path d="M84 29c8-10 18-11 25-7-1 10-8 17-21 19" fill="#d6a94a"/>
  <path d="M35 93c16 8 39 8 58-4" fill="none" stroke="#11291f" stroke-width="6" stroke-linecap="round" opacity=".24"/>
</svg>
